<svg width="61" height="61" viewBox="0 0 61 61" fill="none" xmlns="http://www.w3.org/2000/svg">
<path d="M53.375 17.7917L40.6667 7.625H39.3959L41.9375 20.3333L54.6459 22.875L53.375 17.7917Z" fill="#C3F3E2"/>
<path d="M19.0625 54.6458L6.35419 39.3958H8.89585L20.3334 41.9375L22.875 53.375L19.0625 54.6458Z" fill="#C3F3E2"/>
<path d="M53.375 17.7917L40.6667 7.625H39.3959L41.9375 20.3333L54.6459 22.875L53.375 17.7917Z" stroke="#116446" stroke-width="0.254167"/>
<path d="M19.0625 54.6458L6.35419 39.3958H8.89585L20.3334 41.9375L22.875 53.375L19.0625 54.6458Z" stroke="#116446" stroke-width="0.254167"/>
<path d="M38.125 54.6458L43.2083 40.6666L54.6458 39.3958V43.2083L38.125 54.6458Z" fill="#C3F3E2" stroke="#116446" stroke-width="0.254167"/>
<path d="M12.7084 11.4375L21.6042 7.625L20.3334 20.3333L6.35419 21.6042L12.7084 11.4375Z" fill="#C3F3E2" stroke="#116446" stroke-width="0.254167"/>
<path d="M31.7708 19.0625L20.3333 20.3333L19.0625 29.2292L20.3333 41.9375L40.6667 40.6667L41.9375 33.0417L40.6667 19.0625H31.7708Z" fill="#C3F3E2" stroke="#116446" stroke-width="2.54167"/>
<path d="M30.5 55.9166C44.5376 55.9166 55.9166 44.5375 55.9166 30.4999C55.9166 16.4623 44.5376 5.08325 30.5 5.08325C16.4624 5.08325 5.08331 16.4623 5.08331 30.4999C5.08331 44.5375 16.4624 55.9166 30.5 55.9166Z" stroke="#116446" stroke-width="3.8125" stroke-linecap="round" stroke-linejoin="round"/>
<path d="M20.3334 7.625H22.875C17.9189 22.4723 17.9189 38.5277 22.875 53.375H20.3334M38.125 7.625C43.0812 22.4723 43.0812 38.5277 38.125 53.375" stroke="#116446" stroke-width="3.8125" stroke-linecap="round" stroke-linejoin="round"/>
<path d="M7.625 40.6668V38.1251C22.4723 43.0813 38.5277 43.0813 53.375 38.1251V40.6668M7.625 22.8751C22.4723 17.9189 38.5277 17.9189 53.375 22.8751" stroke="#116446" stroke-width="3.8125" stroke-linecap="round" stroke-linejoin="round"/>
</svg>
