<svg width="61" height="61" viewBox="0 0 61 61" fill="none" xmlns="http://www.w3.org/2000/svg">
<path d="M8.05713 18.9099L30.5 31.8978L52.7905 18.9862M30.5 54.9253V31.8724" stroke="#116446" stroke-width="3.8125" stroke-linecap="round" stroke-linejoin="round"/>
<path d="M25.2388 6.30325L11.6663 13.852C8.59084 15.5549 6.07458 19.8249 6.07458 23.3324V37.6928C6.07458 41.2003 8.59084 45.4703 11.6663 47.1732L25.2388 54.722C28.1363 56.3233 32.8892 56.3233 35.7867 54.722L49.3592 47.1732C52.4346 45.4703 54.9508 41.2003 54.9508 37.6928V23.3324C54.9508 19.8249 52.4346 15.5549 49.3592 13.852L35.7867 6.30325C32.8638 4.67659 28.1363 4.67659 25.2388 6.30325Z" stroke="#116446" stroke-width="3.8125" stroke-linecap="round" stroke-linejoin="round"/>
<path d="M43.2083 33.6517V24.3492L19.0879 10.4209" stroke="#116446" stroke-width="3.8125" stroke-linecap="round" stroke-linejoin="round"/>
</svg>
