<svg width="28" height="29" viewBox="0 0 28 29" fill="none" xmlns="http://www.w3.org/2000/svg">
<path d="M23.3332 14.7327V16.716C23.3332 20.391 21.2332 21.966 18.0832 21.966H7.58325C4.43325 21.966 2.33325 20.391 2.33325 16.716V10.416C2.33325 6.74101 4.43325 5.16602 7.58325 5.16602H10.7332C10.5816 5.60935 10.4999 6.09935 10.4999 6.62435V11.1743C10.4999 12.306 10.8732 13.2627 11.5382 13.9277C12.2032 14.5927 13.1599 14.966 14.2916 14.966V16.5877C14.2916 17.1827 14.9682 17.5443 15.4699 17.2177L18.8416 14.966H21.8749C22.3999 14.966 22.8899 14.8843 23.3332 14.7327Z" stroke="#00A060" stroke-width="1.3125" stroke-miterlimit="10" stroke-linecap="round" stroke-linejoin="round"/>
<path d="M8.63342 26.1663H17.0334M12.8334 21.9663V26.1663M25.6667 6.62467V11.1747C25.6667 12.913 24.7801 14.2197 23.3334 14.733C22.8901 14.8847 22.4001 14.9663 21.8751 14.9663H18.8417L15.4701 17.218C14.9684 17.5447 14.2918 17.183 14.2918 16.588V14.9663C13.1601 14.9663 12.2034 14.593 11.5384 13.928C10.8734 13.263 10.5001 12.3063 10.5001 11.1747V6.62467C10.5001 6.09967 10.5818 5.60967 10.7334 5.16634C11.2468 3.71967 12.5534 2.83301 14.2918 2.83301H21.8751C24.1501 2.83301 25.6667 4.34967 25.6667 6.62467Z" stroke="#00A060" stroke-width="1.3125" stroke-miterlimit="10" stroke-linecap="round" stroke-linejoin="round"/>
<path d="M21.5775 8.95801H21.5892M18.312 8.95801H18.3225M15.0442 8.95801H15.0559" stroke="#00A060" stroke-width="1.3125" stroke-linecap="round" stroke-linejoin="round"/>
</svg>
