<svg width="28" height="29" viewBox="0 0 28 29" fill="none" xmlns="http://www.w3.org/2000/svg">
<path d="M14.0001 16.1687C14.4781 16.1687 14.9514 16.0745 15.3931 15.8916C15.8347 15.7087 16.236 15.4405 16.574 15.1025C16.912 14.7645 17.1801 14.3633 17.363 13.9216C17.5459 13.48 17.6401 13.0067 17.6401 12.5287C17.6401 12.0507 17.5459 11.5773 17.363 11.1357C17.1801 10.6941 16.912 10.2928 16.574 9.9548C16.236 9.6168 15.8347 9.34868 15.3931 9.16575C14.9514 8.98282 14.4781 8.88867 14.0001 8.88867C13.0347 8.88867 12.1089 9.27217 11.4262 9.9548C10.7436 10.6374 10.3601 11.5633 10.3601 12.5287C10.3601 13.4941 10.7436 14.4199 11.4262 15.1025C12.1089 15.7852 13.0347 16.1687 14.0001 16.1687Z" stroke="#00A060" stroke-width="1.3125"/>
<path d="M4.22352 10.4047C6.52185 0.301347 21.4902 0.313013 23.7768 10.4163C25.1185 16.343 21.4318 21.3597 18.2002 24.463C17.0709 25.5521 15.5632 26.1607 13.9943 26.1607C12.4255 26.1607 10.9178 25.5521 9.78852 24.463C6.56852 21.3597 2.88186 16.3313 4.22352 10.4047Z" stroke="#00A060" stroke-width="1.3125"/>
</svg>
