<svg width="52" height="52" viewBox="0 0 52 52" fill="none" xmlns="http://www.w3.org/2000/svg">
<g clip-path="url(#clip0_29_1074)">
<path d="M39.4713 39.4714C37.5599 41.3828 35.2908 42.8989 32.7936 43.9333C30.2963 44.9678 27.6197 45.5002 24.9167 45.5002C19.4576 45.5002 14.2222 43.3316 10.362 39.4714C6.50192 35.6113 4.33333 30.3759 4.33333 24.9168C4.33333 19.4578 6.50192 14.2223 10.362 10.3622C14.2222 6.50209 19.4576 4.3335 24.9167 4.3335C27.6197 4.3335 30.2963 4.8659 32.7936 5.90031C35.2908 6.93472 37.5599 8.45088 39.4713 10.3622C41.3826 12.2736 42.8988 14.5426 43.9332 17.0399C44.9676 19.5372 45.5 22.2138 45.5 24.9168C45.5 27.6199 44.9676 30.2964 43.9332 32.7937C42.8988 35.291 41.3826 37.5601 39.4713 39.4714ZM39.4713 39.4714L51 49.5" stroke="#116446" stroke-width="3.25" stroke-linecap="round" stroke-linejoin="round"/>
</g>
<defs>
<clipPath id="clip0_29_1074">
<rect width="52" height="52" fill="white"/>
</clipPath>
</defs>
</svg>
