<svg width="52" height="52" viewBox="0 0 52 52" fill="none" xmlns="http://www.w3.org/2000/svg">
<path d="M45.5 12.9568C38.285 12.2418 31.0267 11.8735 23.79 11.8735C19.5 11.8735 15.21 12.0902 10.92 12.5235L6.5 12.9568M18.4167 10.7685L18.8933 7.93016C19.24 5.87183 19.5 4.3335 23.1617 4.3335H28.8383C32.5 4.3335 32.7817 5.9585 33.1067 7.95183L33.5833 10.7685M40.8417 19.8035L39.4333 41.6218C39.195 45.0235 39 47.6668 32.955 47.6668H19.045C13 47.6668 12.805 45.0235 12.5667 41.6218L11.1583 19.8035M22.3817 35.7502H29.5967M20.5833 27.0835H31.4167" stroke="#116446" stroke-width="3.25" stroke-linecap="round" stroke-linejoin="round"/>
</svg>
