<svg width="28" height="29" viewBox="0 0 28 29" fill="none" xmlns="http://www.w3.org/2000/svg">
<path d="M8.04991 24.5335C9.79991 25.5835 11.8999 26.1668 13.9999 26.1668C20.4166 26.1668 25.6666 20.9168 25.6666 14.5002C25.6666 8.08349 20.4166 2.8335 13.9999 2.8335C7.58325 2.8335 2.33325 8.08349 2.33325 14.5002C2.33325 16.6001 2.91658 18.5835 3.84992 20.3335L2.84658 24.1905C2.79482 24.3896 2.79663 24.5989 2.85183 24.797C2.90703 24.9952 3.01366 25.1753 3.1609 25.319C3.30814 25.4627 3.49076 25.5649 3.69024 25.6152C3.88972 25.6656 4.09896 25.6622 4.29675 25.6056L8.04991 24.5335Z" stroke="#00A060" stroke-width="1.3125" stroke-miterlimit="10" stroke-linecap="round" stroke-linejoin="round"/>
<path d="M19.25 17.8227C19.25 18.0117 19.208 18.2065 19.1182 18.3955C19.0265 18.5908 18.9062 18.7713 18.7612 18.931C18.5033 19.2145 18.2198 19.4187 17.8978 19.5505C17.5828 19.6823 17.241 19.75 16.8735 19.75C16.3368 19.75 15.764 19.624 15.1585 19.3673C14.5184 19.0898 13.9117 18.7407 13.3502 18.3267C12.7394 17.8805 12.163 17.3891 11.6258 16.8567C11.0944 16.3225 10.6041 15.7488 10.1593 15.1405C9.75056 14.5838 9.40467 13.9836 9.128 13.3508C8.876 12.75 8.75 12.1783 8.75 11.6335C8.75 11.2765 8.813 10.9358 8.939 10.6208C9.065 10.3 9.26567 10.006 9.5445 9.7435C9.8805 9.41217 10.248 9.25 10.6377 9.25C10.7847 9.25 10.9317 9.2815 11.0635 9.3445C11.2 9.4075 11.3202 9.502 11.4158 9.6385L12.6362 11.3558C12.7295 11.4865 12.7995 11.6078 12.8462 11.7233C12.8928 11.833 12.9197 11.9438 12.9197 12.043C12.9181 12.1753 12.8798 12.3046 12.8088 12.4163C12.7278 12.5529 12.6289 12.6781 12.5148 12.7885L12.1147 13.2038C12.0868 13.2311 12.065 13.2638 12.0505 13.3C12.0361 13.3361 12.0293 13.3749 12.0307 13.4138C12.0307 13.4547 12.0365 13.492 12.047 13.534C12.0622 13.576 12.0785 13.6075 12.089 13.639C12.1823 13.8128 12.3457 14.038 12.5778 14.311C12.8147 14.584 13.0667 14.8628 13.3397 15.1405C13.6243 15.4193 13.8973 15.676 14.1762 15.9128C14.4492 16.1427 14.6755 16.3002 14.854 16.3947L14.9497 16.4378C14.9916 16.4528 15.0359 16.4599 15.0803 16.4588C15.1206 16.4597 15.1606 16.4521 15.1977 16.4367C15.2349 16.4212 15.2684 16.3982 15.2962 16.369L15.6952 15.9747C15.827 15.844 15.953 15.7448 16.0743 15.6807C16.1859 15.6096 16.3154 15.5715 16.4477 15.571C16.5581 15.5726 16.6671 15.596 16.7685 15.6398C16.884 15.6865 17.0053 15.7542 17.136 15.844L18.8767 17.0783C19.0028 17.1604 19.1031 17.2765 19.166 17.4132C19.2205 17.5428 19.2491 17.682 19.25 17.8227Z" stroke="#00A060" stroke-width="1.3125" stroke-miterlimit="10"/>
</svg>
